<svg width="48" height="48" viewBox="0 0 48 48" fill="none" xmlns="http://www.w3.org/2000/svg">
  <rect width="48" height="48" rx="8" fill="#667eea"/>
  <path d="M24 12C18.48 12 14 16.48 14 22V28C14 30.21 15.79 32 18 32H30C32.21 32 34 30.21 34 28V22C34 16.48 29.52 12 24 12Z" fill="white"/>
  <path d="M24 36C25.1 36 26 35.1 26 34H22C22 35.1 22.9 36 24 36Z" fill="white"/>
  <circle cx="20" cy="24" r="2" fill="#667eea"/>
  <circle cx="28" cy="24" r="2" fill="#667eea"/>
  <path d="M20 28C20 30.21 21.79 32 24 32C26.21 32 28 30.21 28 28" stroke="#667eea" stroke-width="2" stroke-linecap="round"/>
</svg>
