<svg width="32" height="32" viewBox="0 0 32 32" fill="none" xmlns="http://www.w3.org/2000/svg">
  <rect width="32" height="32" rx="6" fill="#9C27B0"/>
  <path d="M16 6L6 12V20C6 21.1 6.9 22 8 22H24C25.1 22 26 21.1 26 20V12L16 6Z" fill="white"/>
  <path d="M16 6L26 12V20C26 21.1 25.1 22 24 22H8C6.9 22 6 21.1 6 20V12L16 6Z" stroke="#9C27B0" stroke-width="2"/>
  <path d="M6 12L16 18L26 12" stroke="#9C27B0" stroke-width="2" stroke-linecap="round" stroke-linejoin="round"/>
  <path d="M16 6V18" stroke="#9C27B0" stroke-width="2" stroke-linecap="round"/>
  <rect x="12" y="14" width="8" height="4" rx="1" fill="#9C27B0"/>
  <circle cx="14" cy="16" r="0.5" fill="white"/>
  <circle cx="18" cy="16" r="0.5" fill="white"/>
</svg>
