<svg width="32" height="32" viewBox="0 0 32 32" fill="none" xmlns="http://www.w3.org/2000/svg">
  <rect width="32" height="32" rx="6" fill="#4CAF50"/>
  <path d="M16 8C13.79 8 12 9.79 12 12C12 14.21 13.79 16 16 16C18.21 16 20 14.21 20 12C20 9.79 18.21 8 16 8ZM16 14C14.9 14 14 13.1 14 12C14 10.9 14.9 10 16 10C17.1 10 18 10.9 18 12C18 13.1 17.1 14 16 14Z" fill="white"/>
  <path d="M16 18C12.69 18 10 20.69 10 24V26H22V24C22 20.69 19.31 18 16 18ZM12 24C12 21.79 13.79 20 16 20C18.21 20 20 21.79 20 24V24H12V24Z" fill="white"/>
  <circle cx="16" cy="12" r="2" fill="#4CAF50"/>
  <path d="M10 24C10 20.69 12.69 18 16 18C19.31 18 22 20.69 22 24" stroke="#4CAF50" stroke-width="2" stroke-linecap="round"/>
</svg>
