<svg width="32" height="32" viewBox="0 0 32 32" fill="none" xmlns="http://www.w3.org/2000/svg">
  <rect width="32" height="32" rx="6" fill="#607D8B"/>
  <path d="M16 6C12.69 6 10 8.69 10 12V20C10 23.31 12.69 26 16 26C19.31 26 22 23.31 22 20V12C22 8.69 19.31 6 16 6ZM16 8C18.21 8 20 9.79 20 12V20C20 22.21 18.21 24 16 24C13.79 24 12 22.21 12 20V12C12 9.79 13.79 8 16 8Z" fill="white"/>
  <circle cx="16" cy="16" r="2" fill="#607D8B"/>
  <path d="M16 10C17.1 10 18 10.9 18 12V20C18 21.1 17.1 22 16 22C14.9 22 14 21.1 14 20V12C14 10.9 14.9 10 16 10Z" stroke="#607D8B" stroke-width="2"/>
  <path d="M8 12H12" stroke="white" stroke-width="2" stroke-linecap="round"/>
  <path d="M20 12H24" stroke="white" stroke-width="2" stroke-linecap="round"/>
  <path d="M8 20H12" stroke="white" stroke-width="2" stroke-linecap="round"/>
  <path d="M20 20H24" stroke="white" stroke-width="2" stroke-linecap="round"/>
  <path d="M12 8V12" stroke="white" stroke-width="2" stroke-linecap="round"/>
  <path d="M20 8V12" stroke="white" stroke-width="2" stroke-linecap="round"/>
  <path d="M12 20V24" stroke="white" stroke-width="2" stroke-linecap="round"/>
  <path d="M20 20V24" stroke="white" stroke-width="2" stroke-linecap="round"/>
</svg>
